<svg
  width="50"
  height="50"
  viewBox="0 0 50 50"
  fill="none"
  xmlns="http://www.w3.org/2000/svg" >
  <g id="toppings" clip-path="url(#clip0)">
    <path
      id="ham"
      d="M16.1681 2.41002C30.6833 4.05664 37.764 6.975 47.6446 17.3553C40.5263 27.4643 37.4926 34.6961 32.6993 48.8317C19.1594 47.3958 12.4689 43.4154 1.22287 33.8864C10.1837 22.4462 13.7324 15.6298 16.1681 2.41002Z"
      fill="#FCACAC"
    />
    <g id="pepperonis">
      <circle id="Ellipse 9" cx="25" cy="25" r="25" fill="#B60404" />
      <path
        id="Intersect"
        d="M20 15C25.5228 15 30 10.5228 30 5C30 3.29729 29.5744 1.69398 28.8239 0.290611C27.5772 0.0992644 26.3002 0 25 0C19.372 0 14.1783 1.85972 10 4.99817C10 4.99878 10 4.99756 10 4.99817C10 10.521 14.4772 15 20 15Z"
        fill="#8B0000"
      />
      <circle id="Ellipse 12" cx="17.5" cy="32.5" r="7.5" fill="#8B0000" />
      <circle id="Ellipse 13" cx="40" cy="20" r="5" fill="#8B0000" />
      <circle id="Ellipse 14" cx="37.5" cy="37.5" r="2.5" fill="#FB9E9E" />
      <circle id="Ellipse 16" cx="7.5" cy="22.5" r="2.5" fill="#FB9E9E" />
      <circle id="Ellipse 15" cx="27.5" cy="17.5" r="2.5" fill="#FB9E9E" />
    </g>
    <path
      id="shrooms"
      d="M44.6739 6.97561C30.0088 0.501374 21.6729 0.183455 6.64185 6.97561C1.71369 16.0941 1.85895 21.2042 6.64185 30.3232C10.548 33.2233 12.8364 33.9837 17.508 30.3232V47H33.8074V30.3232C38.0539 33.2625 40.4273 33.3161 44.6739 30.3232C49.2155 21.2055 49.0007 16.0935 44.6739 6.97561Z"
      fill="#AE9A7B"
    />
    <path
      id="sausage"
      fill-rule="evenodd"
      clip-rule="evenodd"
      d="M24.9824 24.5774C24.9941 24.7173 25 24.8582 25 25C25 25.1418 24.9941 25.2827 24.9824 25.4226C24.9944 25.4254 25.0063 25.4283 25.0183 25.4311C25.0061 25.2884 25 25.1447 25 25C25 24.8553 25.0061 24.7116 25.0183 24.5689C25.0063 24.5717 24.9944 24.5746 24.9824 24.5774ZM10.0176 32.0774C10.0059 32.2173 10 32.3582 10 32.5C10 36.6421 15.0368 40 21.25 40C27.4632 40 32.5 36.6421 32.5 32.5C32.5 32.3553 32.4939 32.2116 32.4817 32.0689C33.6598 32.348 34.9283 32.5 36.25 32.5C42.4632 32.5 47.5 29.1421 47.5 25C47.5 23.6339 46.9522 22.3532 45.9949 21.25C46.9522 20.1469 47.5 18.8661 47.5 17.5C47.5 13.3579 42.4632 10 36.25 10C33.3687 10 30.7403 10.7221 28.75 11.9097C26.7597 10.7221 24.1313 10 21.25 10C15.0368 10 10 13.3579 10 17.5C10 17.6418 10.0059 17.7827 10.0176 17.9226C5.63892 18.9489 2.5 21.7301 2.5 25C2.5 28.2699 5.63892 31.0511 10.0176 32.0774Z"
      fill="#7D3C00"
    />
    <g id="onion">
      <rect id="Rectangle 7" width="50" height="50" fill="#D3FF77" />
      <path
        id="5"
        d="M22.207 24.7227L22.6406 20.4688H27.0117V21.4707H23.5605L23.3027 23.7969C23.7207 23.5508 24.1953 23.4277 24.7266 23.4277C25.5039 23.4277 26.1211 23.6855 26.5781 24.2012C27.0352 24.7129 27.2637 25.4062 27.2637 26.2812C27.2637 27.1602 27.0254 27.8535 26.5488 28.3613C26.0762 28.8652 25.4141 29.1172 24.5625 29.1172C23.8086 29.1172 23.1934 28.9082 22.7168 28.4902C22.2402 28.0723 21.9688 27.4941 21.9023 26.7559H22.9277C22.9941 27.2441 23.168 27.6133 23.4492 27.8633C23.7305 28.1094 24.1016 28.2324 24.5625 28.2324C25.0664 28.2324 25.4609 28.0605 25.7461 27.7168C26.0352 27.373 26.1797 26.8984 26.1797 26.293C26.1797 25.7227 26.0234 25.2656 25.7109 24.9219C25.4023 24.5742 24.9902 24.4004 24.4746 24.4004C24.002 24.4004 23.6309 24.5039 23.3613 24.7109L23.0742 24.9453L22.207 24.7227Z"
        fill="black"
      />
    </g>
    <g id="jalapeno">
      <rect id="Rectangle 8" width="50" height="50" fill="#D3FF77" />
      <path
        id="6"
        d="M25.9629 20.4629V21.3828H25.7637C24.9199 21.3984 24.248 21.6484 23.748 22.1328C23.248 22.6172 22.959 23.2988 22.8809 24.1777C23.3301 23.6621 23.9434 23.4043 24.7207 23.4043C25.4629 23.4043 26.0547 23.666 26.4961 24.1895C26.9414 24.7129 27.1641 25.3887 27.1641 26.2168C27.1641 27.0957 26.9238 27.7988 26.4434 28.3262C25.9668 28.8535 25.3262 29.1172 24.5215 29.1172C23.7051 29.1172 23.043 28.8047 22.5352 28.1797C22.0273 27.5508 21.7734 26.7422 21.7734 25.7539V25.3379C21.7734 23.7676 22.1074 22.5684 22.7754 21.7402C23.4473 20.9082 24.4453 20.4824 25.7695 20.4629H25.9629ZM24.5391 24.3066C24.168 24.3066 23.8262 24.418 23.5137 24.6406C23.2012 24.8633 22.9844 25.1426 22.8633 25.4785V25.877C22.8633 26.5801 23.0215 27.1465 23.3379 27.5762C23.6543 28.0059 24.0488 28.2207 24.5215 28.2207C25.0098 28.2207 25.3926 28.041 25.6699 27.6816C25.9512 27.3223 26.0918 26.8516 26.0918 26.2695C26.0918 25.6836 25.9492 25.2109 25.6641 24.8516C25.3828 24.4883 25.0078 24.3066 24.5391 24.3066Z"
        fill="black"
      />
    </g>
    <g id="pepper">
      <rect id="Rectangle 9" width="50" height="50" fill="#D3FF77" />
      <path
        id="7"
        d="M27.2168 21.0781L23.6836 29H22.5469L26.0684 21.3594H21.4512V20.4688H27.2168V21.0781Z"
        fill="black"
      />
    </g>
    <g id="tomato">
      <rect id="Rectangle 10" width="50" height="50" fill="#D3FF77" />
      <path
        id="8"
        d="M26.8828 22.6953C26.8828 23.1211 26.7695 23.5 26.543 23.832C26.3203 24.1641 26.0176 24.4238 25.6348 24.6113C26.0801 24.8027 26.4316 25.082 26.6895 25.4492C26.9512 25.8164 27.082 26.2324 27.082 26.6973C27.082 27.4355 26.832 28.0234 26.332 28.4609C25.8359 28.8984 25.1816 29.1172 24.3691 29.1172C23.5488 29.1172 22.8906 28.8984 22.3945 28.4609C21.9023 28.0195 21.6562 27.4316 21.6562 26.6973C21.6562 26.2363 21.7812 25.8203 22.0312 25.4492C22.2852 25.0781 22.6348 24.7969 23.0801 24.6055C22.7012 24.418 22.4023 24.1582 22.1836 23.8262C21.9648 23.4941 21.8555 23.1172 21.8555 22.6953C21.8555 21.9766 22.0859 21.4062 22.5469 20.9844C23.0078 20.5625 23.6152 20.3516 24.3691 20.3516C25.1191 20.3516 25.7246 20.5625 26.1855 20.9844C26.6504 21.4062 26.8828 21.9766 26.8828 22.6953ZM25.998 26.6738C25.998 26.1973 25.8457 25.8086 25.541 25.5078C25.2402 25.207 24.8457 25.0566 24.3574 25.0566C23.8691 25.0566 23.4766 25.2051 23.1797 25.502C22.8867 25.7988 22.7402 26.1895 22.7402 26.6738C22.7402 27.1582 22.8828 27.5391 23.168 27.8164C23.457 28.0938 23.8574 28.2324 24.3691 28.2324C24.877 28.2324 25.2754 28.0938 25.5645 27.8164C25.8535 27.5352 25.998 27.1543 25.998 26.6738ZM24.3691 21.2422C23.9434 21.2422 23.5977 21.375 23.332 21.6406C23.0703 21.9023 22.9395 22.2598 22.9395 22.7129C22.9395 23.1465 23.0684 23.498 23.3262 23.7676C23.5879 24.0332 23.9355 24.166 24.3691 24.166C24.8027 24.166 25.1484 24.0332 25.4062 23.7676C25.668 23.498 25.7988 23.1465 25.7988 22.7129C25.7988 22.2793 25.6641 21.9258 25.3945 21.6523C25.125 21.3789 24.7832 21.2422 24.3691 21.2422Z"
        fill="black"
      />
    </g>
  </g>
  <defs>
    <clipPath id="clip0">
      <rect width="50" height="50" fill="white" />
    </clipPath>
  </defs>
</svg>
