<svg width="50" height="50" viewBox="0 0 50 50" fill="none" xmlns="http://www.w3.org/2000/svg">
<g id="toppings" clip-path="url(#clip0)">
<rect width="50" height="50" fill="white"/>
<path id="ham" d="M16.1681 2.41002C30.6833 4.05664 37.764 6.975 47.6446 17.3553C40.5263 27.4643 37.4926 34.6961 32.6993 48.8317C19.1594 47.3958 12.4689 43.4154 1.22287 33.8864C10.1837 22.4462 13.7324 15.6298 16.1681 2.41002Z" fill="#FCACAC"/>
<g id="pepperonis">
<circle id="Ellipse 9" cx="25" cy="25" r="25" fill="#B60404"/>
<path id="Intersect" d="M20 15C25.5228 15 30 10.5228 30 5C30 3.29729 29.5744 1.69398 28.8239 0.290611C27.5772 0.0992644 26.3002 0 25 0C19.372 0 14.1783 1.85972 10 4.99817C10 4.99878 10 4.99756 10 4.99817C10 10.521 14.4772 15 20 15Z" fill="#8B0000"/>
<circle id="Ellipse 12" cx="17.5" cy="32.5" r="7.5" fill="#8B0000"/>
<circle id="Ellipse 13" cx="40" cy="20" r="5" fill="#8B0000"/>
<circle id="Ellipse 14" cx="37.5" cy="37.5" r="2.5" fill="#FB9E9E"/>
<circle id="Ellipse 16" cx="7.5" cy="22.5" r="2.5" fill="#FB9E9E"/>
<circle id="Ellipse 15" cx="27.5" cy="17.5" r="2.5" fill="#FB9E9E"/>
</g>
<path id="shrooms" d="M44.6739 6.97561C30.0088 0.501374 21.6729 0.183455 6.64185 6.97561C1.71369 16.0941 1.85895 21.2042 6.64185 30.3232C10.548 33.2233 12.8364 33.9837 17.508 30.3232V47H33.8074V30.3232C38.0539 33.2625 40.4273 33.3161 44.6739 30.3232C49.2155 21.2055 49.0007 16.0935 44.6739 6.97561Z" fill="#AE9A7B"/>
<path id="sausage" fill-rule="evenodd" clip-rule="evenodd" d="M24.9824 24.5774C24.9941 24.7173 25 24.8582 25 25C25 25.1418 24.9941 25.2827 24.9824 25.4226C24.9944 25.4254 25.0063 25.4283 25.0183 25.4311C25.0061 25.2884 25 25.1447 25 25C25 24.8553 25.0061 24.7116 25.0183 24.5689C25.0063 24.5717 24.9944 24.5746 24.9824 24.5774ZM10.0176 32.0774C10.0059 32.2173 10 32.3582 10 32.5C10 36.6421 15.0368 40 21.25 40C27.4632 40 32.5 36.6421 32.5 32.5C32.5 32.3553 32.4939 32.2116 32.4817 32.0689C33.6598 32.348 34.9283 32.5 36.25 32.5C42.4632 32.5 47.5 29.1421 47.5 25C47.5 23.6339 46.9522 22.3532 45.9949 21.25C46.9522 20.1469 47.5 18.8661 47.5 17.5C47.5 13.3579 42.4632 10 36.25 10C33.3687 10 30.7403 10.7221 28.75 11.9097C26.7597 10.7221 24.1313 10 21.25 10C15.0368 10 10 13.3579 10 17.5C10 17.6418 10.0059 17.7827 10.0176 17.9226C5.63892 18.9489 2.5 21.7301 2.5 25C2.5 28.2699 5.63892 31.0511 10.0176 32.0774Z" fill="#7D3C00"/>
<g id="olives">
<path id="Subtract" fill-rule="evenodd" clip-rule="evenodd" d="M24.5 2C36.9264 2 47 12.0736 47 24.5C47 36.9264 36.9264 47 24.5 47C12.0736 47 2 36.9264 2 24.5C2 12.0736 12.0736 2 24.5 2ZM24.5 20C26.9853 20 29 22.0147 29 24.5C29 26.9853 26.9853 29 24.5 29C22.0147 29 20 26.9853 20 24.5C20 22.0147 22.0147 20 24.5 20Z" fill="#3E3E3E"/>
<path id="Subtract_2" fill-rule="evenodd" clip-rule="evenodd" d="M24.5 11C31.9558 11 38 17.0442 38 24.5C38 31.9558 31.9558 38 24.5 38C17.0442 38 11 31.9558 11 24.5C11 17.0442 17.0442 11 24.5 11ZM24.5 20C26.9853 20 29 22.0147 29 24.5C29 26.9853 26.9853 29 24.5 29C22.0147 29 20 26.9853 20 24.5C20 22.0147 22.0147 20 24.5 20Z" fill="#8F8F8F"/>
</g>
<g id="peppers">
<path id="Subtract_3" fill-rule="evenodd" clip-rule="evenodd" d="M24.3704 3.66243C27.0477 5.08102 29.0876 7.23121 30.3743 9.73641C33.1698 9.39418 36.0945 9.87449 38.7718 11.2931C45.7312 14.9806 48.3836 23.6116 44.6961 30.5711C41.9651 35.7255 36.5223 38.5173 31.0552 38.1207C30.7816 39.1538 30.3867 40.1722 29.8648 41.1571C26.1773 48.1166 17.5463 50.769 10.5868 47.0815C3.62737 43.394 0.974935 34.7629 4.66243 27.8035C5.1843 26.8186 5.80517 25.9199 6.5063 25.1133C3.10791 20.8125 2.36131 14.7412 5.09239 9.58682C8.77989 2.62737 17.4109 -0.0250644 24.3704 3.66243ZM23.1735 12.2505C24.8772 13.1532 26.1753 14.5215 26.9942 16.1158C28.7731 15.898 30.6343 16.2036 32.338 17.1064C36.7667 19.453 38.4547 24.9454 36.1081 29.3742C34.3701 32.6543 30.9065 34.4309 27.4275 34.1785C27.2533 34.8359 27.0021 35.484 26.67 36.1108C24.3234 40.5395 18.8309 42.2274 14.4021 39.8808C9.9734 37.5342 8.28548 32.0417 10.6321 27.613C10.9642 26.9862 11.3593 26.4144 11.8055 25.9011C9.64283 23.1642 9.16772 19.3006 10.9057 16.0206C13.2523 11.5918 18.7448 9.90391 23.1735 12.2505Z" fill="#33822C"/>
<path id="Subtract_4" fill-rule="evenodd" clip-rule="evenodd" d="M39.612 29.8626C37.4688 33.9073 33.1977 36.0981 28.9076 35.7869C28.6929 36.5976 28.383 37.3967 27.9735 38.1696C25.0798 43.6308 18.3069 45.7122 12.8457 42.8185C7.38452 39.9249 5.30311 33.152 8.19675 27.6908C8.60624 26.9179 9.09342 26.2128 9.64357 25.5798C6.97674 22.2049 6.39084 17.4406 8.53399 13.3959C11.4276 7.93466 18.2006 5.85325 23.6618 8.74689C25.7627 9.86008 27.3634 11.5474 28.3732 13.5133C30.5669 13.2447 32.862 13.6216 34.963 14.7348C40.4242 17.6284 42.5056 24.4014 39.612 29.8626ZM22.7228 15.486C24.0598 16.1944 25.0784 17.2682 25.721 18.5192C27.1169 18.3483 28.5773 18.5882 29.9142 19.2965C33.3895 21.138 34.7141 25.448 32.8727 28.9233C31.5089 31.4972 28.791 32.8914 26.0609 32.6933C25.9243 33.2092 25.7271 33.7177 25.4665 34.2096C23.6251 37.6849 19.315 39.0094 15.8397 37.168C12.3644 35.3266 11.0399 31.0165 12.8813 27.5412C13.1419 27.0494 13.452 26.6006 13.8021 26.1978C12.1051 24.0502 11.7322 21.0184 13.096 18.4444C14.9375 14.9691 19.2475 13.6446 22.7228 15.486Z" fill="#409939"/>
</g>
<g id="onions">
<path id="Subtract_5" fill-rule="evenodd" clip-rule="evenodd" d="M17.8522 43.739C27.7651 47.5367 39.0997 42.0054 43.1687 31.3844C47.2378 20.7634 42.5003 9.07464 32.5874 5.27688C22.6745 1.47913 11.3398 7.01046 7.27081 17.6315C3.20178 28.2525 7.93921 39.9412 17.8522 43.739ZM19.0801 40.5338C27.3409 43.6986 36.7864 39.0891 40.1772 30.2383C43.5681 21.3874 39.6202 11.6469 31.3595 8.48206C23.0987 5.31726 13.6532 9.9267 10.2623 18.7775C6.87144 27.6284 10.8193 37.369 19.0801 40.5338Z" fill="#F3DFF1"/>
<path id="Subtract_6" fill-rule="evenodd" clip-rule="evenodd" d="M16.6243 46.9441C28.1894 51.3748 41.4132 44.9216 46.1604 32.5304C50.9076 20.1392 45.3806 6.5024 33.8155 2.07169C22.2504 -2.35903 9.02664 4.0942 4.27944 16.4854C-0.467756 28.8766 5.05925 42.5134 16.6243 46.9441ZM17.8523 43.7389C27.7652 47.5367 39.0998 42.0054 43.1689 31.3843C47.2379 20.7633 42.5005 9.07462 32.5875 5.27686C22.6746 1.4791 11.34 7.01044 7.27094 17.6314C3.20191 28.2525 7.93934 39.9412 17.8523 43.7389Z" fill="#A80097"/>
<path id="Subtract_7" fill-rule="evenodd" clip-rule="evenodd" d="M19.92 38.3374C27.1377 41.1026 35.3789 37.1054 38.3273 29.4095C41.2757 21.7136 37.8148 13.2333 30.5971 10.4681C23.3794 7.70292 15.1382 11.7001 12.1898 19.396C9.24141 27.0919 12.7024 35.5722 19.92 38.3374ZM20.8098 36.015C26.8245 38.3193 33.6922 34.9883 36.1492 28.5751C38.6062 22.1618 35.7221 15.0948 29.7073 12.7905C23.6926 10.4862 16.8249 13.8172 14.3679 20.2304C11.9109 26.6437 14.7951 33.7107 20.8098 36.015Z" fill="#F3DFF1"/>
<path id="Subtract_8" fill-rule="evenodd" clip-rule="evenodd" d="M19.0802 40.5338C27.341 43.6985 36.7865 39.0891 40.1774 30.2383C43.5682 21.3874 39.6204 11.6468 31.3596 8.48202C23.0988 5.31722 13.6533 9.92667 10.2624 18.7775C6.87156 27.6284 10.8194 37.369 19.0802 40.5338ZM19.9573 38.2443C27.038 40.957 35.1341 37.0061 38.0406 29.4196C40.947 21.8332 37.5632 13.4841 30.4825 10.7714C23.4018 8.05875 15.3056 12.0097 12.3992 19.5961C9.49275 27.1826 12.8766 35.5317 19.9573 38.2443Z" fill="#A80097"/>
</g>
<g id="jalapinos">
<path id="Rectangle 22" d="M23.1596 13.2397H28.4027C34.1095 30.4397 34.1095 26.1397 28.4027 39.0397H23.1596C16.9095 26.1397 16.9096 34.7397 23.1596 13.2397Z" fill="#D3FF77"/>
<path id="Rectangle 23" d="M38.436 24.0528L38.4188 29.4795C21.2092 34.7396 25.5092 34.7396 12.6189 29.3977L12.6361 23.9709C25.5094 17.5397 29.8092 17.5398 38.436 24.0528Z" fill="#D3FF77"/>
<path id="Subtract_9" fill-rule="evenodd" clip-rule="evenodd" d="M25.5 47C37.3741 47 42.7094 39.0397 47 25.5C47 13.6259 38.4094 8.93972 25.5 4C13.6259 4 8.30945 8.93972 4 25.5C4.00945 39.0397 12.6094 43.3397 25.5 47ZM25.5093 39.0397C32.6338 39.0397 38.4093 33.2642 38.4093 26.1397C38.4093 19.0153 32.6338 13.2397 25.5093 13.2397C18.3849 13.2397 12.6093 19.0153 12.6093 26.1397C12.6093 33.2642 18.3849 39.0397 25.5093 39.0397Z" fill="#17A500"/>
</g>
</g>
<defs>
<clipPath id="clip0">
<rect width="50" height="50" fill="white"/>
</clipPath>
</defs>
</svg>
