<svg
  width="100"
  height="100"
  viewBox="0 0 100 100"
  fill="none"
  xmlns="http://www.w3.org/2000/svg"
>
  <g id="pizza">
    <circle id="crust" cx="50" cy="50" r="50" fill="#C59854" />
    <circle id="cheese" cx="50" cy="50" r="45" fill="#FCF2BC" />
    <g id="ham">
      <path
        id="Rectangle 11"
        d="M19.6074 19.1528C24.6062 19.7199 27.0447 20.7249 30.4475 24.2998C27.996 27.7812 26.9513 30.2718 25.3005 35.1399C20.6375 34.6454 18.3334 33.2746 14.4604 29.9929C17.5464 26.053 18.7685 23.7055 19.6074 19.1528Z"
        fill="#FCACAC"
      />
      <path
        id="Rectangle 12"
        d="M12.6074 44.1528C17.6062 44.7199 20.0447 45.7249 23.4475 49.2998C20.996 52.7812 19.9513 55.2718 18.3005 60.1399C13.6375 59.6454 11.3334 58.2746 7.46038 54.9929C10.5464 51.053 11.7685 48.7055 12.6074 44.1528Z"
        fill="#FCACAC"
      />
      <path
        id="Rectangle 13"
        d="M27.6074 66.1528C32.6063 66.7199 35.0448 67.7249 38.4476 71.2998C35.9961 74.7812 34.9513 77.2718 33.3006 82.1399C28.6376 81.6454 26.3334 80.2746 22.4604 76.9929C25.5464 73.053 26.7686 70.7055 27.6074 66.1528Z"
        fill="#FCACAC"
      />
      <path
        id="Rectangle 14"
        d="M50.6073 71.1528C55.6061 71.7199 58.0447 72.7249 61.4474 76.2998C58.996 79.7812 57.9512 82.2718 56.3004 87.1399C51.6374 86.6454 49.3333 85.2746 45.4603 81.9929C48.5463 78.053 49.7685 75.7055 50.6073 71.1528Z"
        fill="#FCACAC"
      />
      <path
        id="Rectangle 15"
        d="M79.6073 58.1528C84.6061 58.7199 87.0447 59.7249 90.4474 63.2998C87.996 66.7812 86.9512 69.2718 85.3004 74.1399C80.6374 73.6454 78.3333 72.2746 74.4603 68.9929C77.5463 65.053 78.7685 62.7055 79.6073 58.1528Z"
        fill="#FCACAC"
      />
      <path
        id="Rectangle 19"
        d="M54.6073 49.1528C59.6061 49.7199 62.0447 50.7249 65.4474 54.2998C62.996 57.7812 61.9512 60.2718 60.3004 65.1399C55.6374 64.6454 53.3333 63.2746 49.4603 59.9929C52.5463 56.053 53.7685 53.7055 54.6073 49.1528Z"
        fill="#FCACAC"
      />
      <path
        id="Rectangle 18"
        d="M61.6073 8.1528C66.6061 8.71988 69.0447 9.72493 72.4474 13.2998C69.996 16.7812 68.9512 19.2718 67.3004 24.1399C62.6374 23.6454 60.3333 22.2746 56.4603 18.9929C59.5463 15.053 60.7685 12.7055 61.6073 8.1528Z"
        fill="#FCACAC"
      />
      <path
        id="Rectangle 16"
        d="M39.6073 28.1528C44.6061 28.7199 47.0447 29.7249 50.4474 33.2998C47.996 36.7812 46.9512 39.2718 45.3004 44.1399C40.6374 43.6454 38.3333 42.2746 34.4603 38.9929C37.5463 35.053 38.7685 32.7055 39.6073 28.1528Z"
        fill="#FCACAC"
      />
      <path
        id="Rectangle 20"
        d="M39.6073 7.1528C44.6061 7.71988 47.0447 8.72493 50.4474 12.2998C47.996 15.7812 46.9512 18.2718 45.3004 23.1399C40.6374 22.6454 38.3333 21.2746 34.4603 17.9929C37.5463 14.053 38.7685 11.7055 39.6073 7.1528Z"
        fill="#FCACAC"
      />
      <path
        id="Rectangle 17"
        d="M79.6073 29.1528C84.6061 29.7199 87.0447 30.7249 90.4474 34.2998C87.996 37.7812 86.9512 40.2718 85.3004 45.1399C80.6374 44.6454 78.3333 43.2746 74.4603 39.9929C77.5463 36.053 78.7685 33.7055 79.6073 29.1528Z"
        fill="#FCACAC"
      />
    </g>
    <g id="pepperonis">
      <g id="pepperoni">
        <circle id="Ellipse 9" cx="33" cy="23" r="5" fill="#B60404" />
        <path
          id="Intersect"
          d="M32 21C33.1046 21 34 20.1046 34 19C34 18.6595 33.9149 18.3388 33.7648 18.0581C33.5154 18.0199 33.26 18 33 18C31.8744 18 30.8357 18.3719 30 18.9996C30 18.9998 30 18.9995 30 18.9996C30 20.1042 30.8954 21 32 21Z"
          fill="#8B0000"
        />
        <circle id="Ellipse 12" cx="31.5" cy="24.5" r="1.5" fill="#8B0000" />
        <circle id="Ellipse 13" cx="36" cy="22" r="1" fill="#8B0000" />
        <circle id="Ellipse 14" cx="35.5" cy="25.5" r="0.5" fill="#FB9E9E" />
        <circle id="Ellipse 16" cx="29.5" cy="22.5" r="0.5" fill="#FB9E9E" />
        <circle id="Ellipse 15" cx="33.5" cy="21.5" r="0.5" fill="#FB9E9E" />
      </g>
      <g id="pepperoni_2">
        <circle id="Ellipse 9_2" cx="52" cy="15" r="5" fill="#B60404" />
        <path
          id="Intersect_2"
          d="M51 13C52.1046 13 53 12.1046 53 11C53 10.6595 52.9149 10.3388 52.7648 10.0581C52.5154 10.0199 52.26 10 52 10C50.8744 10 49.8357 10.3719 49 10.9996C49 10.9998 49 10.9995 49 10.9996C49 12.1042 49.8954 13 51 13Z"
          fill="#8B0000"
        />
        <circle id="Ellipse 12_2" cx="50.5" cy="16.5" r="1.5" fill="#8B0000" />
        <circle id="Ellipse 13_2" cx="55" cy="14" r="1" fill="#8B0000" />
        <circle id="Ellipse 14_2" cx="54.5" cy="17.5" r="0.5" fill="#FB9E9E" />
        <circle id="Ellipse 16_2" cx="48.5" cy="14.5" r="0.5" fill="#FB9E9E" />
        <circle id="Ellipse 15_2" cx="52.5" cy="13.5" r="0.5" fill="#FB9E9E" />
      </g>
      <g id="pepperoni_3">
        <circle id="Ellipse 9_3" cx="74" cy="25" r="5" fill="#B60404" />
        <path
          id="Intersect_3"
          d="M73 23C74.1046 23 75 22.1046 75 21C75 20.6595 74.9149 20.3388 74.7648 20.0581C74.5154 20.0199 74.26 20 74 20C72.8744 20 71.8357 20.3719 71 20.9996C71 20.9998 71 20.9995 71 20.9996C71 22.1042 71.8954 23 73 23Z"
          fill="#8B0000"
        />
        <circle id="Ellipse 12_3" cx="72.5" cy="26.5" r="1.5" fill="#8B0000" />
        <circle id="Ellipse 13_3" cx="77" cy="24" r="1" fill="#8B0000" />
        <circle id="Ellipse 14_3" cx="76.5" cy="27.5" r="0.5" fill="#FB9E9E" />
        <circle id="Ellipse 16_3" cx="70.5" cy="24.5" r="0.5" fill="#FB9E9E" />
        <circle id="Ellipse 15_3" cx="74.5" cy="23.5" r="0.5" fill="#FB9E9E" />
      </g>
      <g id="pepperoni_4">
        <circle id="Ellipse 9_4" cx="83" cy="50" r="5" fill="#B60404" />
        <path
          id="Intersect_4"
          d="M82 48C83.1046 48 84 47.1046 84 46C84 45.6595 83.9149 45.3388 83.7648 45.0581C83.5154 45.0199 83.26 45 83 45C81.8744 45 80.8357 45.3719 80 45.9996C80 45.9998 80 45.9995 80 45.9996C80 47.1042 80.8954 48 82 48Z"
          fill="#8B0000"
        />
        <circle id="Ellipse 12_4" cx="81.5" cy="51.5" r="1.5" fill="#8B0000" />
        <circle id="Ellipse 13_4" cx="86" cy="49" r="1" fill="#8B0000" />
        <circle id="Ellipse 14_4" cx="85.5" cy="52.5" r="0.5" fill="#FB9E9E" />
        <circle id="Ellipse 16_4" cx="79.5" cy="49.5" r="0.5" fill="#FB9E9E" />
        <circle id="Ellipse 15_4" cx="83.5" cy="48.5" r="0.5" fill="#FB9E9E" />
      </g>
      <g id="pepperoni_5">
        <circle id="Ellipse 9_5" cx="70" cy="76" r="5" fill="#B60404" />
        <path
          id="Intersect_5"
          d="M69 74C70.1046 74 71 73.1046 71 72C71 71.6595 70.9149 71.3388 70.7648 71.0581C70.5154 71.0199 70.26 71 70 71C68.8744 71 67.8357 71.3719 67 71.9996C67 71.9998 67 71.9995 67 71.9996C67 73.1042 67.8954 74 69 74Z"
          fill="#8B0000"
        />
        <circle id="Ellipse 12_5" cx="68.5" cy="77.5" r="1.5" fill="#8B0000" />
        <circle id="Ellipse 13_5" cx="73" cy="75" r="1" fill="#8B0000" />
        <circle id="Ellipse 14_5" cx="72.5" cy="78.5" r="0.5" fill="#FB9E9E" />
        <circle id="Ellipse 16_5" cx="66.5" cy="75.5" r="0.5" fill="#FB9E9E" />
        <circle id="Ellipse 15_5" cx="70.5" cy="74.5" r="0.5" fill="#FB9E9E" />
      </g>
      <g id="pepperoni_6">
        <circle id="Ellipse 9_6" cx="44" cy="84" r="5" fill="#B60404" />
        <path
          id="Intersect_6"
          d="M43 82C44.1046 82 45 81.1046 45 80C45 79.6595 44.9149 79.3388 44.7648 79.0581C44.5154 79.0199 44.26 79 44 79C42.8744 79 41.8357 79.3719 41 79.9996C41 79.9998 41 79.9995 41 79.9996C41 81.1042 41.8954 82 43 82Z"
          fill="#8B0000"
        />
        <circle id="Ellipse 12_6" cx="42.5" cy="85.5" r="1.5" fill="#8B0000" />
        <circle id="Ellipse 13_6" cx="47" cy="83" r="1" fill="#8B0000" />
        <circle id="Ellipse 14_6" cx="46.5" cy="86.5" r="0.5" fill="#FB9E9E" />
        <circle id="Ellipse 16_6" cx="40.5" cy="83.5" r="0.5" fill="#FB9E9E" />
        <circle id="Ellipse 15_6" cx="44.5" cy="82.5" r="0.5" fill="#FB9E9E" />
      </g>
      <g id="pepperoni_7">
        <circle id="Ellipse 9_7" cx="21" cy="64" r="5" fill="#B60404" />
        <path
          id="Intersect_7"
          d="M20 62C21.1046 62 22 61.1046 22 60C22 59.6595 21.9149 59.3388 21.7648 59.0581C21.5154 59.0199 21.26 59 21 59C19.8744 59 18.8357 59.3719 18 59.9996C18 59.9998 18 59.9995 18 59.9996C18 61.1042 18.8954 62 20 62Z"
          fill="#8B0000"
        />
        <circle id="Ellipse 12_7" cx="19.5" cy="65.5" r="1.5" fill="#8B0000" />
        <circle id="Ellipse 13_7" cx="24" cy="63" r="1" fill="#8B0000" />
        <circle id="Ellipse 14_7" cx="23.5" cy="66.5" r="0.5" fill="#FB9E9E" />
        <circle id="Ellipse 16_7" cx="17.5" cy="63.5" r="0.5" fill="#FB9E9E" />
        <circle id="Ellipse 15_7" cx="21.5" cy="62.5" r="0.5" fill="#FB9E9E" />
      </g>
      <g id="pepperoni_8">
        <circle id="Ellipse 9_8" cx="17" cy="41" r="5" fill="#B60404" />
        <path
          id="Intersect_8"
          d="M16 39C17.1046 39 18 38.1046 18 37C18 36.6595 17.9149 36.3388 17.7648 36.0581C17.5154 36.0199 17.26 36 17 36C15.8744 36 14.8357 36.3719 14 36.9996C14 36.9998 14 36.9995 14 36.9996C14 38.1042 14.8954 39 16 39Z"
          fill="#8B0000"
        />
        <circle id="Ellipse 12_8" cx="15.5" cy="42.5" r="1.5" fill="#8B0000" />
        <circle id="Ellipse 13_8" cx="20" cy="40" r="1" fill="#8B0000" />
        <circle id="Ellipse 14_8" cx="19.5" cy="43.5" r="0.5" fill="#FB9E9E" />
        <circle id="Ellipse 16_8" cx="13.5" cy="40.5" r="0.5" fill="#FB9E9E" />
        <circle id="Ellipse 15_8" cx="17.5" cy="39.5" r="0.5" fill="#FB9E9E" />
      </g>
      <g id="pepperoni_9">
        <circle id="Ellipse 9_9" cx="55" cy="34" r="5" fill="#B60404" />
        <path
          id="Intersect_9"
          d="M54 32C55.1046 32 56 31.1046 56 30C56 29.6595 55.9149 29.3388 55.7648 29.0581C55.5154 29.0199 55.26 29 55 29C53.8744 29 52.8357 29.3719 52 29.9996C52 29.9998 52 29.9995 52 29.9996C52 31.1042 52.8954 32 54 32Z"
          fill="#8B0000"
        />
        <circle id="Ellipse 12_9" cx="53.5" cy="35.5" r="1.5" fill="#8B0000" />
        <circle id="Ellipse 13_9" cx="58" cy="33" r="1" fill="#8B0000" />
        <circle id="Ellipse 14_9" cx="57.5" cy="36.5" r="0.5" fill="#FB9E9E" />
        <circle id="Ellipse 16_9" cx="51.5" cy="33.5" r="0.5" fill="#FB9E9E" />
        <circle id="Ellipse 15_9" cx="55.5" cy="32.5" r="0.5" fill="#FB9E9E" />
      </g>
      <g id="pepperoni_10">
        <circle id="Ellipse 9_10" cx="34" cy="47" r="5" fill="#B60404" />
        <path
          id="Intersect_10"
          d="M33 45C34.1046 45 35 44.1046 35 43C35 42.6595 34.9149 42.3388 34.7648 42.0581C34.5154 42.0199 34.26 42 34 42C32.8744 42 31.8357 42.3719 31 42.9996C31 42.9998 31 42.9995 31 42.9996C31 44.1042 31.8954 45 33 45Z"
          fill="#8B0000"
        />
        <circle id="Ellipse 12_10" cx="32.5" cy="48.5" r="1.5" fill="#8B0000" />
        <circle id="Ellipse 13_10" cx="37" cy="46" r="1" fill="#8B0000" />
        <circle id="Ellipse 14_10" cx="36.5" cy="49.5" r="0.5" fill="#FB9E9E" />
        <circle id="Ellipse 16_10" cx="30.5" cy="46.5" r="0.5" fill="#FB9E9E" />
        <circle id="Ellipse 15_10" cx="34.5" cy="45.5" r="0.5" fill="#FB9E9E" />
      </g>
      <g id="pepperoni_11">
        <circle id="Ellipse 9_11" cx="46" cy="62" r="5" fill="#B60404" />
        <path
          id="Intersect_11"
          d="M45 60C46.1046 60 47 59.1046 47 58C47 57.6595 46.9149 57.3388 46.7648 57.0581C46.5154 57.0199 46.26 57 46 57C44.8744 57 43.8357 57.3719 43 57.9996C43 57.9998 43 57.9995 43 57.9996C43 59.1042 43.8954 60 45 60Z"
          fill="#8B0000"
        />
        <circle id="Ellipse 12_11" cx="44.5" cy="63.5" r="1.5" fill="#8B0000" />
        <circle id="Ellipse 13_11" cx="49" cy="61" r="1" fill="#8B0000" />
        <circle id="Ellipse 14_11" cx="48.5" cy="64.5" r="0.5" fill="#FB9E9E" />
        <circle id="Ellipse 16_11" cx="42.5" cy="61.5" r="0.5" fill="#FB9E9E" />
        <circle id="Ellipse 15_11" cx="46.5" cy="60.5" r="0.5" fill="#FB9E9E" />
      </g>
      <g id="pepperoni_12">
        <circle id="Ellipse 9_12" cx="65" cy="52" r="5" fill="#B60404" />
        <path
          id="Intersect_12"
          d="M64 50C65.1046 50 66 49.1046 66 48C66 47.6595 65.9149 47.3388 65.7648 47.0581C65.5154 47.0199 65.26 47 65 47C63.8744 47 62.8357 47.3719 62 47.9996C62 47.9998 62 47.9995 62 47.9996C62 49.1042 62.8954 50 64 50Z"
          fill="#8B0000"
        />
        <circle id="Ellipse 12_12" cx="63.5" cy="53.5" r="1.5" fill="#8B0000" />
        <circle id="Ellipse 13_12" cx="68" cy="51" r="1" fill="#8B0000" />
        <circle id="Ellipse 14_12" cx="67.5" cy="54.5" r="0.5" fill="#FB9E9E" />
        <circle id="Ellipse 16_12" cx="61.5" cy="51.5" r="0.5" fill="#FB9E9E" />
        <circle id="Ellipse 15_12" cx="65.5" cy="50.5" r="0.5" fill="#FB9E9E" />
      </g>
    </g>
    <g id="sausage">
      <path
        id="Union"
        fill-rule="evenodd"
        clip-rule="evenodd"
        d="M28.0023 18.9436C28.0008 18.9623 28 18.9811 28 19C28 19.5523 28.6716 20 29.5 20C30.3284 20 31 19.5523 31 19C31 18.9807 30.9992 18.9615 30.9976 18.9425C31.1546 18.9797 31.3238 19 31.5 19C32.3284 19 33 18.5523 33 18C33 17.8179 32.927 17.6471 32.7993 17.5C32.927 17.3529 33 17.1821 33 17C33 16.4477 32.3284 16 31.5 16C31.1158 16 30.7654 16.0963 30.5 16.2546C30.2346 16.0963 29.8842 16 29.5 16C28.6716 16 28 16.4477 28 17C28 17.0189 28.0008 17.0377 28.0023 17.0564C27.4185 17.1932 27 17.564 27 18C27 18.436 27.4185 18.8068 28.0023 18.9436ZM29.9977 17.9436C29.9992 17.9623 30 17.9811 30 18C30 18.0189 29.9992 18.0377 29.9977 18.0564L30.0024 18.0575C30.0008 18.0385 30 18.0193 30 18C30 17.9807 30.0008 17.9615 30.0024 17.9425L29.9977 17.9436Z"
        fill="#7D3C00"
      />
      <path
        id="Union_2"
        fill-rule="evenodd"
        clip-rule="evenodd"
        d="M31.3521 41.9122C31.3404 41.9268 31.3292 41.9419 31.3186 41.9576C31.0099 42.4155 31.3163 43.1622 32.0032 43.6254C32.69 44.0886 33.4971 44.0929 33.8059 43.635C33.8167 43.619 33.8267 43.6026 33.836 43.586C33.9454 43.7047 34.0743 43.816 34.2204 43.9145C34.9073 44.3777 35.7144 44.382 36.0232 43.9241C36.125 43.7731 36.16 43.5907 36.1364 43.3974C36.3244 43.3468 36.4805 43.2461 36.5823 43.0951C36.8911 42.6372 36.5846 41.8905 35.8978 41.4273C35.5793 41.2125 35.2349 41.0964 34.9264 41.0793C34.7949 40.7996 34.5582 40.5238 34.2396 40.309C33.5528 39.8459 32.7457 39.8416 32.4369 40.2994C32.4263 40.3151 32.4165 40.3311 32.4073 40.3475C31.8468 40.1345 31.2925 40.2079 31.0487 40.5694C30.8049 40.9309 30.9446 41.4723 31.3521 41.9122ZM33.5655 42.1987C33.5564 42.2151 33.5465 42.2311 33.5359 42.2468C33.5254 42.2625 33.5142 42.2776 33.5025 42.2922L33.5058 42.2958C33.5151 42.2791 33.5252 42.2628 33.5359 42.2468C33.5467 42.2308 33.5581 42.2154 33.5701 42.2005L33.5655 42.1987Z"
        fill="#7D3C00"
      />
      <path
        id="Union_3"
        fill-rule="evenodd"
        clip-rule="evenodd"
        d="M87.9398 56.9787C87.9288 56.9635 87.9172 56.9487 87.9049 56.9343C87.546 56.5146 86.7447 56.6107 86.115 57.149C85.4853 57.6873 85.2658 58.4641 85.6247 58.8838C85.6372 58.8985 85.6503 58.9125 85.6639 58.9259C85.5203 58.9997 85.3786 59.0942 85.2447 59.2088C84.615 59.7471 84.3955 60.5238 84.7544 60.9436C84.8727 61.082 85.0392 61.1643 85.2318 61.1932C85.2304 61.3879 85.2858 61.5652 85.4042 61.7037C85.7631 62.1234 86.5645 62.0273 87.1941 61.489C87.4861 61.2393 87.6899 60.9384 87.7888 60.6456C88.0934 60.5935 88.4223 60.439 88.7143 60.1893C89.344 59.651 89.5635 58.8743 89.2046 58.4545C89.1923 58.4401 89.1795 58.4264 89.1662 58.4132C89.521 57.9298 89.5982 57.376 89.3148 57.0446C89.0315 56.7132 88.4724 56.7033 87.9398 56.9787ZM87.073 59.0354C87.0597 59.0222 87.0469 59.0085 87.0346 58.9941C87.0223 58.9797 87.0107 58.9649 86.9998 58.9497L86.9954 58.952C87.009 58.9654 87.0221 58.9794 87.0346 58.9941C87.0471 59.0087 87.059 59.0238 87.0701 59.0394L87.073 59.0354Z"
        fill="#7D3C00"
      />
      <path
        id="Union_4"
        fill-rule="evenodd"
        clip-rule="evenodd"
        d="M19.0023 37.9436C19.0008 37.9623 19 37.9811 19 38C19 38.5523 19.6716 39 20.5 39C21.3284 39 22 38.5523 22 38C22 37.9807 21.9992 37.9615 21.9976 37.9425C22.1546 37.9797 22.3238 38 22.5 38C23.3284 38 24 37.5523 24 37C24 36.8179 23.927 36.6471 23.7993 36.5C23.927 36.3529 24 36.1821 24 36C24 35.4477 23.3284 35 22.5 35C22.1158 35 21.7654 35.0963 21.5 35.2546C21.2346 35.0963 20.8842 35 20.5 35C19.6716 35 19 35.4477 19 36C19 36.0189 19.0008 36.0377 19.0023 36.0564C18.4185 36.1932 18 36.564 18 37C18 37.436 18.4185 37.8068 19.0023 37.9436ZM20.9977 36.9436C20.9992 36.9623 21 36.9811 21 37C21 37.0189 20.9992 37.0377 20.9977 37.0564L21.0024 37.0575C21.0008 37.0385 21 37.0193 21 37C21 36.9807 21.0008 36.9615 21.0024 36.9425L20.9977 36.9436Z"
        fill="#7D3C00"
      />
      <path
        id="Union_5"
        fill-rule="evenodd"
        clip-rule="evenodd"
        d="M24.0023 54.9436C24.0008 54.9623 24 54.9811 24 55C24 55.5523 24.6716 56 25.5 56C26.3284 56 27 55.5523 27 55C27 54.9807 26.9992 54.9615 26.9976 54.9425C27.1546 54.9797 27.3238 55 27.5 55C28.3284 55 29 54.5523 29 54C29 53.8179 28.927 53.6471 28.7993 53.5C28.927 53.3529 29 53.1821 29 53C29 52.4477 28.3284 52 27.5 52C27.1158 52 26.7654 52.0963 26.5 52.2546C26.2346 52.0963 25.8842 52 25.5 52C24.6716 52 24 52.4477 24 53C24 53.0189 24.0008 53.0377 24.0023 53.0564C23.4185 53.1932 23 53.564 23 54C23 54.436 23.4185 54.8068 24.0023 54.9436ZM25.9977 53.9436C25.9992 53.9623 26 53.9811 26 54C26 54.0189 25.9992 54.0377 25.9977 54.0564L26.0024 54.0575C26.0008 54.0385 26 54.0193 26 54C26 53.9807 26.0008 53.9615 26.0024 53.9425L25.9977 53.9436Z"
        fill="#7D3C00"
      />
      <path
        id="Union_6"
        fill-rule="evenodd"
        clip-rule="evenodd"
        d="M42.468 36.223C42.4771 36.2394 42.4869 36.2554 42.4974 36.2712C42.804 36.7305 43.6111 36.73 44.3001 36.2701C44.9891 35.8101 45.2991 35.0649 44.9925 34.6056C44.9818 34.5895 44.9705 34.574 44.9586 34.5591C45.1099 34.5028 45.2618 34.4258 45.4083 34.328C46.0974 33.868 46.4073 33.1228 46.1007 32.6634C45.9996 32.5119 45.844 32.4105 45.6562 32.359C45.6807 32.1658 45.6466 31.9832 45.5455 31.8317C45.2389 31.3724 44.4317 31.3729 43.7427 31.8328C43.4232 32.0461 43.1852 32.3208 43.0524 32.5998C42.7438 32.6154 42.3988 32.7299 42.0793 32.9432C41.3903 33.4032 41.0803 34.1484 41.3869 34.6077C41.3974 34.6235 41.4085 34.6387 41.4202 34.6533C41.0106 35.0913 40.8684 35.632 41.1104 35.9947C41.3525 36.3573 41.9065 36.4333 42.468 36.223ZM43.5723 34.2835C43.584 34.2981 43.5951 34.3133 43.6056 34.329C43.6161 34.3448 43.6258 34.3608 43.6349 34.3772L43.6395 34.3755C43.6276 34.3606 43.6163 34.3451 43.6056 34.329C43.5949 34.313 43.5849 34.2966 43.5757 34.2799L43.5723 34.2835Z"
        fill="#7D3C00"
      />
      <path
        id="Union_7"
        fill-rule="evenodd"
        clip-rule="evenodd"
        d="M37.0738 60.2382C37.077 60.2197 37.0795 60.2011 37.0812 60.1822C37.1304 59.6321 36.5014 59.1264 35.6763 59.0525C34.8511 58.9787 34.1423 59.3648 34.0931 59.9148C34.0914 59.9341 34.0905 59.9532 34.0904 59.9723C33.9373 59.9212 33.7706 59.886 33.5951 59.8703C32.77 59.7964 32.0612 60.1825 32.0119 60.7326C31.9957 60.914 32.0532 61.0906 32.1672 61.2485C32.027 61.3836 31.939 61.5472 31.9228 61.7286C31.8736 62.2787 32.5026 62.7845 33.3277 62.8583C33.7104 62.8926 34.068 62.8279 34.3464 62.6939C34.5966 62.8752 34.9371 63.0024 35.3198 63.0366C36.1449 63.1104 36.8537 62.7244 36.9029 62.1743C36.9046 62.1554 36.9055 62.1367 36.9056 62.1179C37.4993 62.0337 37.9492 61.7016 37.9881 61.2674C38.0269 60.8331 37.6431 60.4265 37.0738 60.2382ZM34.9973 61.0563C34.9974 61.0376 34.9983 61.0188 35 61C35.0017 60.9812 35.0041 60.9625 35.0074 60.9441L35.0027 60.9425C35.0026 60.9616 35.0017 60.9808 35 61C34.9983 61.0192 34.9958 61.0382 34.9924 61.057L34.9973 61.0563Z"
        fill="#7D3C00"
      />
      <path
        id="Union_8"
        fill-rule="evenodd"
        clip-rule="evenodd"
        d="M52.0023 66.9436C52.0008 66.9623 52 66.9811 52 67C52 67.5523 52.6716 68 53.5 68C54.3284 68 55 67.5523 55 67C55 66.9807 54.9992 66.9615 54.9976 66.9425C55.1546 66.9797 55.3238 67 55.5 67C56.3284 67 57 66.5523 57 66C57 65.8179 56.927 65.6471 56.7993 65.5C56.927 65.3529 57 65.1821 57 65C57 64.4477 56.3284 64 55.5 64C55.1158 64 54.7654 64.0963 54.5 64.2546C54.2346 64.0963 53.8842 64 53.5 64C52.6716 64 52 64.4477 52 65C52 65.0189 52.0008 65.0377 52.0023 65.0564C51.4185 65.1932 51 65.564 51 66C51 66.436 51.4185 66.8068 52.0023 66.9436ZM53.9977 65.9436C53.9992 65.9623 54 65.9811 54 66C54 66.0189 53.9992 66.0377 53.9977 66.0564L54.0024 66.0575C54.0008 66.0385 54 66.0193 54 66C54 65.9807 54.0008 65.9615 54.0024 65.9425L53.9977 65.9436Z"
        fill="#7D3C00"
      />
      <path
        id="Union_9"
        fill-rule="evenodd"
        clip-rule="evenodd"
        d="M13.0023 50.9436C13.0008 50.9623 13 50.9811 13 51C13 51.5523 13.6716 52 14.5 52C15.3284 52 16 51.5523 16 51C16 50.9807 15.9992 50.9615 15.9976 50.9425C16.1546 50.9797 16.3238 51 16.5 51C17.3284 51 18 50.5523 18 50C18 49.8179 17.927 49.6471 17.7993 49.5C17.927 49.3529 18 49.1821 18 49C18 48.4477 17.3284 48 16.5 48C16.1158 48 15.7654 48.0963 15.5 48.2546C15.2346 48.0963 14.8842 48 14.5 48C13.6716 48 13 48.4477 13 49C13 49.0189 13.0008 49.0377 13.0023 49.0564C12.4185 49.1932 12 49.564 12 50C12 50.436 12.4185 50.8068 13.0023 50.9436ZM14.9977 49.9436C14.9992 49.9623 15 49.9811 15 50C15 50.0189 14.9992 50.0377 14.9977 50.0564L15.0024 50.0575C15.0008 50.0385 15 50.0193 15 50C15 49.9807 15.0008 49.9615 15.0024 49.9425L14.9977 49.9436Z"
        fill="#7D3C00"
      />
      <path
        id="Union_10"
        fill-rule="evenodd"
        clip-rule="evenodd"
        d="M19.0023 70.9436C19.0008 70.9623 19 70.9811 19 71C19 71.5523 19.6716 72 20.5 72C21.3284 72 22 71.5523 22 71C22 70.9807 21.9992 70.9615 21.9976 70.9425C22.1546 70.9797 22.3238 71 22.5 71C23.3284 71 24 70.5523 24 70C24 69.8179 23.927 69.6471 23.7993 69.5C23.927 69.3529 24 69.1821 24 69C24 68.4477 23.3284 68 22.5 68C22.1158 68 21.7654 68.0963 21.5 68.2546C21.2346 68.0963 20.8842 68 20.5 68C19.6716 68 19 68.4477 19 69C19 69.0189 19.0008 69.0377 19.0023 69.0564C18.4185 69.1932 18 69.564 18 70C18 70.436 18.4185 70.8068 19.0023 70.9436ZM20.9977 69.9436C20.9992 69.9623 21 69.9811 21 70C21 70.0189 20.9992 70.0377 20.9977 70.0564L21.0024 70.0575C21.0008 70.0385 21 70.0193 21 70C21 69.9807 21.0008 69.9615 21.0024 69.9425L20.9977 69.9436Z"
        fill="#7D3C00"
      />
      <path
        id="Union_11"
        fill-rule="evenodd"
        clip-rule="evenodd"
        d="M47.0079 44.0446C46.9925 44.0552 46.9774 44.0664 46.9627 44.0783C46.5341 44.4266 46.6101 45.2301 47.1324 45.8731C47.6548 46.516 48.4258 46.755 48.8544 46.4067C48.8694 46.3945 48.8838 46.3818 48.8975 46.3686C48.9677 46.5139 49.0586 46.658 49.1697 46.7948C49.6921 47.4377 50.4631 47.6766 50.8917 47.3284C51.0331 47.2135 51.1196 47.0492 51.1532 46.8573C51.3479 46.8637 51.5265 46.8127 51.6678 46.6978C52.0965 46.3496 52.0205 45.546 51.4981 44.903C51.2558 44.6049 50.9601 44.3936 50.6699 44.2875C50.6255 43.9817 50.4792 43.649 50.237 43.3508C49.7146 42.7078 48.9436 42.4689 48.515 42.8172C48.5003 42.8291 48.4862 42.8415 48.4727 42.8545C47.9984 42.4877 47.4466 42.3967 47.1083 42.6716C46.7699 42.9465 46.746 43.5052 47.0079 44.0446ZM49.0422 44.9626C49.0287 44.9756 49.0147 44.9881 49 45C48.9853 45.0119 48.9702 45.0232 48.9548 45.0337L48.9569 45.0381C48.9707 45.0249 48.985 45.0122 49 45C49.015 44.9878 49.0303 44.9764 49.0461 44.9656L49.0422 44.9626Z"
        fill="#7D3C00"
      />
      <path
        id="Union_12"
        fill-rule="evenodd"
        clip-rule="evenodd"
        d="M54.0023 54.9436C54.0008 54.9623 54 54.9811 54 55C54 55.5523 54.6716 56 55.5 56C56.3284 56 57 55.5523 57 55C57 54.9807 56.9992 54.9615 56.9976 54.9425C57.1546 54.9797 57.3238 55 57.5 55C58.3284 55 59 54.5523 59 54C59 53.8179 58.927 53.6471 58.7993 53.5C58.927 53.3529 59 53.1821 59 53C59 52.4477 58.3284 52 57.5 52C57.1158 52 56.7654 52.0963 56.5 52.2546C56.2346 52.0963 55.8842 52 55.5 52C54.6716 52 54 52.4477 54 53C54 53.0189 54.0008 53.0377 54.0023 53.0564C53.4185 53.1932 53 53.564 53 54C53 54.436 53.4185 54.8068 54.0023 54.9436ZM55.9977 53.9436C55.9992 53.9623 56 53.9811 56 54C56 54.0189 55.9992 54.0377 55.9977 54.0564L56.0024 54.0575C56.0008 54.0385 56 54.0193 56 54C56 53.9807 56.0008 53.9615 56.0024 53.9425L55.9977 53.9436Z"
        fill="#7D3C00"
      />
      <path
        id="Union_13"
        fill-rule="evenodd"
        clip-rule="evenodd"
        d="M70.0023 46.9436C70.0008 46.9623 70 46.9811 70 47C70 47.5523 70.6716 48 71.5 48C72.3284 48 73 47.5523 73 47C73 46.9807 72.9992 46.9615 72.9976 46.9425C73.1546 46.9797 73.3238 47 73.5 47C74.3284 47 75 46.5523 75 46C75 45.8179 74.927 45.6471 74.7993 45.5C74.927 45.3529 75 45.1821 75 45C75 44.4477 74.3284 44 73.5 44C73.1158 44 72.7654 44.0963 72.5 44.2546C72.2346 44.0963 71.8842 44 71.5 44C70.6716 44 70 44.4477 70 45C70 45.0189 70.0008 45.0377 70.0023 45.0564C69.4185 45.1932 69 45.564 69 46C69 46.436 69.4185 46.8068 70.0023 46.9436ZM71.9977 45.9436C71.9992 45.9623 72 45.9811 72 46C72 46.0189 71.9992 46.0377 71.9977 46.0564L72.0024 46.0575C72.0008 46.0385 72 46.0193 72 46C72 45.9807 72.0008 45.9615 72.0024 45.9425L71.9977 45.9436Z"
        fill="#7D3C00"
      />
      <path
        id="Union_14"
        fill-rule="evenodd"
        clip-rule="evenodd"
        d="M83.0023 45.9436C83.0008 45.9623 83 45.9811 83 46C83 46.5523 83.6716 47 84.5 47C85.3284 47 86 46.5523 86 46C86 45.9807 85.9992 45.9615 85.9976 45.9425C86.1546 45.9797 86.3238 46 86.5 46C87.3284 46 88 45.5523 88 45C88 44.8179 87.927 44.6471 87.7993 44.5C87.927 44.3529 88 44.1821 88 44C88 43.4477 87.3284 43 86.5 43C86.1158 43 85.7654 43.0963 85.5 43.2546C85.2346 43.0963 84.8842 43 84.5 43C83.6716 43 83 43.4477 83 44C83 44.0189 83.0008 44.0377 83.0023 44.0564C82.4185 44.1932 82 44.564 82 45C82 45.436 82.4185 45.8068 83.0023 45.9436ZM84.9977 44.9436C84.9992 44.9623 85 44.9811 85 45C85 45.0189 84.9992 45.0377 84.9977 45.0564L85.0024 45.0575C85.0008 45.0385 85 45.0193 85 45C85 44.9807 85.0008 44.9615 85.0024 44.9425L84.9977 44.9436Z"
        fill="#7D3C00"
      />
      <path
        id="Union_15"
        fill-rule="evenodd"
        clip-rule="evenodd"
        d="M50.0023 25.9436C50.0008 25.9623 50 25.9811 50 26C50 26.5523 50.6716 27 51.5 27C52.3284 27 53 26.5523 53 26C53 25.9807 52.9992 25.9615 52.9976 25.9425C53.1546 25.9797 53.3238 26 53.5 26C54.3284 26 55 25.5523 55 25C55 24.8179 54.927 24.6471 54.7993 24.5C54.927 24.3529 55 24.1821 55 24C55 23.4477 54.3284 23 53.5 23C53.1158 23 52.7654 23.0963 52.5 23.2546C52.2346 23.0963 51.8842 23 51.5 23C50.6716 23 50 23.4477 50 24C50 24.0189 50.0008 24.0377 50.0023 24.0564C49.4185 24.1932 49 24.564 49 25C49 25.436 49.4185 25.8068 50.0023 25.9436ZM51.9977 24.9436C51.9992 24.9623 52 24.9811 52 25C52 25.0189 51.9992 25.0377 51.9977 25.0564L52.0024 25.0575C52.0008 25.0385 52 25.0193 52 25C52 24.9807 52.0008 24.9615 52.0024 24.9425L51.9977 24.9436Z"
        fill="#7D3C00"
      />
      <path
        id="Union_16"
        fill-rule="evenodd"
        clip-rule="evenodd"
        d="M58.0023 35.9436C58.0008 35.9623 58 35.9811 58 36C58 36.5523 58.6716 37 59.5 37C60.3284 37 61 36.5523 61 36C61 35.9807 60.9992 35.9615 60.9976 35.9425C61.1546 35.9797 61.3238 36 61.5 36C62.3284 36 63 35.5523 63 35C63 34.8179 62.927 34.6471 62.7993 34.5C62.927 34.3529 63 34.1821 63 34C63 33.4477 62.3284 33 61.5 33C61.1158 33 60.7654 33.0963 60.5 33.2546C60.2346 33.0963 59.8842 33 59.5 33C58.6716 33 58 33.4477 58 34C58 34.0189 58.0008 34.0377 58.0023 34.0564C57.4185 34.1932 57 34.564 57 35C57 35.436 57.4185 35.8068 58.0023 35.9436ZM59.9977 34.9436C59.9992 34.9623 60 34.9811 60 35C60 35.0189 59.9992 35.0377 59.9977 35.0564L60.0024 35.0575C60.0008 35.0385 60 35.0193 60 35C60 34.9807 60.0008 34.9615 60.0024 34.9425L59.9977 34.9436Z"
        fill="#7D3C00"
      />
      <path
        id="Union_17"
        fill-rule="evenodd"
        clip-rule="evenodd"
        d="M69.9513 32.9445C69.9611 32.9605 69.9716 32.9761 69.9828 32.9913C70.3104 33.436 71.1166 33.3981 71.7836 32.9068C72.4506 32.4155 72.7258 31.6568 72.3983 31.2121C72.3868 31.1966 72.3748 31.1816 72.3622 31.1673C72.5108 31.1041 72.659 31.0201 72.8009 30.9156C73.4679 30.4242 73.7431 29.6655 73.4155 29.2208C73.3075 29.0741 73.1474 28.98 72.9574 28.9372C72.9729 28.7431 72.9305 28.5623 72.8225 28.4156C72.4949 27.971 71.6887 28.0088 71.0217 28.5001C70.7123 28.7279 70.4873 29.0133 70.3675 29.2982C70.0599 29.3281 69.7207 29.4584 69.4113 29.6862C68.7443 30.1775 68.4691 30.9363 68.7967 31.381C68.8079 31.3962 68.8197 31.4109 68.832 31.425C68.4431 31.8814 68.326 32.4282 68.5846 32.7792C68.8432 33.1302 69.4001 33.1806 69.9513 32.9445ZM70.9648 30.956C70.9771 30.9701 70.9888 30.9848 71.0001 31C71.0113 31.0152 71.0218 31.0308 71.0316 31.0468L71.0361 31.0448C71.0235 31.0305 71.0115 31.0155 71.0001 31C70.9886 30.9845 70.9779 30.9685 70.9679 30.9523L70.9648 30.956Z"
        fill="#7D3C00"
      />
      <path
        id="Union_18"
        fill-rule="evenodd"
        clip-rule="evenodd"
        d="M67.0023 21.9436C67.0008 21.9623 67 21.9811 67 22C67 22.5523 67.6716 23 68.5 23C69.3284 23 70 22.5523 70 22C70 21.9807 69.9992 21.9615 69.9976 21.9425C70.1546 21.9797 70.3238 22 70.5 22C71.3284 22 72 21.5523 72 21C72 20.8179 71.927 20.6471 71.7993 20.5C71.927 20.3529 72 20.1821 72 20C72 19.4477 71.3284 19 70.5 19C70.1158 19 69.7654 19.0963 69.5 19.2546C69.2346 19.0963 68.8842 19 68.5 19C67.6716 19 67 19.4477 67 20C67 20.0189 67.0008 20.0377 67.0023 20.0564C66.4185 20.1932 66 20.564 66 21C66 21.436 66.4185 21.8068 67.0023 21.9436ZM68.9977 20.9436C68.9992 20.9623 69 20.9811 69 21C69 21.0189 68.9992 21.0377 68.9977 21.0564L69.0024 21.0575C69.0008 21.0385 69 21.0193 69 21C69 20.9807 69.0008 20.9615 69.0024 20.9425L68.9977 20.9436Z"
        fill="#7D3C00"
      />
      <path
        id="Union_19"
        fill-rule="evenodd"
        clip-rule="evenodd"
        d="M70.4408 58.9339C70.428 58.9476 70.4158 58.9619 70.4041 58.9768C70.0629 59.411 70.3144 60.178 70.9658 60.6898C71.6172 61.2017 72.4218 61.2645 72.7631 60.8303C72.775 60.8151 72.7862 60.7995 72.7966 60.7836C72.8972 60.9099 73.0176 61.0303 73.1562 61.1392C73.8076 61.651 74.6123 61.7139 74.9535 61.2796C75.066 61.1364 75.1141 60.957 75.1046 60.7625C75.2959 60.7257 75.4588 60.6366 75.5713 60.4933C75.9126 60.0591 75.6611 59.2921 75.0097 58.7803C74.7076 58.5429 74.3726 58.4021 74.0661 58.3627C73.9553 58.0742 73.7392 57.782 73.4371 57.5446C72.7857 57.0328 71.981 56.9699 71.6398 57.4041C71.6281 57.419 71.6171 57.4343 71.6068 57.4499C71.0632 57.1968 70.505 57.2298 70.2357 57.5726C69.9663 57.9154 70.0663 58.4656 70.4408 58.9339ZM72.6276 59.3804C72.6173 59.396 72.6063 59.4113 72.5946 59.4261C72.5829 59.441 72.5707 59.4553 72.5579 59.469L72.561 59.4728C72.5715 59.4569 72.5827 59.4413 72.5946 59.4261C72.6065 59.411 72.619 59.3964 72.632 59.3824L72.6276 59.3804Z"
        fill="#7D3C00"
      />
      <path
        id="Union_20"
        fill-rule="evenodd"
        clip-rule="evenodd"
        d="M69.0023 68.9436C69.0008 68.9623 69 68.9811 69 69C69 69.5523 69.6716 70 70.5 70C71.3284 70 72 69.5523 72 69C72 68.9807 71.9992 68.9615 71.9976 68.9425C72.1546 68.9797 72.3238 69 72.5 69C73.3284 69 74 68.5523 74 68C74 67.8179 73.927 67.6471 73.7993 67.5C73.927 67.3529 74 67.1821 74 67C74 66.4477 73.3284 66 72.5 66C72.1158 66 71.7654 66.0963 71.5 66.2546C71.2346 66.0963 70.8842 66 70.5 66C69.6716 66 69 66.4477 69 67C69 67.0189 69.0008 67.0377 69.0023 67.0564C68.4185 67.1932 68 67.564 68 68C68 68.436 68.4185 68.8068 69.0023 68.9436ZM70.9977 67.9436C70.9992 67.9623 71 67.9811 71 68C71 68.0189 70.9992 68.0377 70.9977 68.0564L71.0024 68.0575C71.0008 68.0385 71 68.0193 71 68C71 67.9807 71.0008 67.9615 71.0024 67.9425L70.9977 67.9436Z"
        fill="#7D3C00"
      />
      <path
        id="Union_21"
        fill-rule="evenodd"
        clip-rule="evenodd"
        d="M58.0023 79.4155C58.0008 79.4435 58 79.4716 58 79.5C58 80.3284 58.6716 81 59.5 81C60.3284 81 61 80.3284 61 79.5C61 79.4711 60.9992 79.4423 60.9976 79.4138C61.1546 79.4696 61.3238 79.5 61.5 79.5C62.3284 79.5 63 78.8284 63 78C63 77.7268 62.927 77.4706 62.7993 77.25C62.927 77.0294 63 76.7732 63 76.5C63 75.6716 62.3284 75 61.5 75C61.1158 75 60.7654 75.1444 60.5 75.3819C60.2346 75.1444 59.8842 75 59.5 75C58.6716 75 58 75.6716 58 76.5C58 76.5284 58.0008 76.5565 58.0023 76.5845C57.4185 76.7898 57 77.346 57 78C57 78.654 57.4185 79.2102 58.0023 79.4155ZM59.9977 77.9155C59.9992 77.9435 60 77.9716 60 78C60 78.0284 59.9992 78.0565 59.9977 78.0845L60.0024 78.0862C60.0008 78.0577 60 78.0289 60 78C60 77.9711 60.0008 77.9423 60.0024 77.9138L59.9977 77.9155Z"
        fill="#7D3C00"
      />
      <path
        id="Union_22"
        fill-rule="evenodd"
        clip-rule="evenodd"
        d="M45.0023 84.9436C45.0008 84.9623 45 84.9811 45 85C45 85.5523 45.6716 86 46.5 86C47.3284 86 48 85.5523 48 85C48 84.9807 47.9992 84.9615 47.9976 84.9425C48.1546 84.9797 48.3238 85 48.5 85C49.3284 85 50 84.5523 50 84C50 83.8179 49.927 83.6471 49.7993 83.5C49.927 83.3529 50 83.1821 50 83C50 82.4477 49.3284 82 48.5 82C48.1158 82 47.7654 82.0963 47.5 82.2546C47.2346 82.0963 46.8842 82 46.5 82C45.6716 82 45 82.4477 45 83C45 83.0189 45.0008 83.0377 45.0023 83.0564C44.4185 83.1932 44 83.564 44 84C44 84.436 44.4185 84.8068 45.0023 84.9436ZM46.9977 83.9436C46.9992 83.9623 47 83.9811 47 84C47 84.0189 46.9992 84.0377 46.9977 84.0564L47.0024 84.0575C47.0008 84.0385 47 84.0193 47 84C47 83.9807 47.0008 83.9615 47.0024 83.9425L46.9977 83.9436Z"
        fill="#7D3C00"
      />
      <path
        id="Union_23"
        fill-rule="evenodd"
        clip-rule="evenodd"
        d="M43.0023 75.9436C43.0008 75.9623 43 75.9811 43 76C43 76.5523 43.6716 77 44.5 77C45.3284 77 46 76.5523 46 76C46 75.9807 45.9992 75.9615 45.9976 75.9425C46.1546 75.9797 46.3238 76 46.5 76C47.3284 76 48 75.5523 48 75C48 74.8179 47.927 74.6471 47.7993 74.5C47.927 74.3529 48 74.1821 48 74C48 73.4477 47.3284 73 46.5 73C46.1158 73 45.7654 73.0963 45.5 73.2546C45.2346 73.0963 44.8842 73 44.5 73C43.6716 73 43 73.4477 43 74C43 74.0189 43.0008 74.0377 43.0023 74.0564C42.4185 74.1932 42 74.564 42 75C42 75.436 42.4185 75.8068 43.0023 75.9436ZM44.9977 74.9436C44.9992 74.9623 45 74.9811 45 75C45 75.0189 44.9992 75.0377 44.9977 75.0564L45.0024 75.0575C45.0008 75.0385 45 75.0193 45 75C45 74.9807 45.0008 74.9615 45.0024 74.9425L44.9977 74.9436Z"
        fill="#7D3C00"
      />
      <path
        id="Union_24"
        fill-rule="evenodd"
        clip-rule="evenodd"
        d="M30.0023 83.9436C30.0008 83.9623 30 83.9811 30 84C30 84.5523 30.6716 85 31.5 85C32.3284 85 33 84.5523 33 84C33 83.9807 32.9992 83.9615 32.9976 83.9425C33.1546 83.9797 33.3238 84 33.5 84C34.3284 84 35 83.5523 35 83C35 82.8179 34.927 82.6471 34.7993 82.5C34.927 82.3529 35 82.1821 35 82C35 81.4477 34.3284 81 33.5 81C33.1158 81 32.7654 81.0963 32.5 81.2546C32.2346 81.0963 31.8842 81 31.5 81C30.6716 81 30 81.4477 30 82C30 82.0189 30.0008 82.0377 30.0023 82.0564C29.4185 82.1932 29 82.564 29 83C29 83.436 29.4185 83.8068 30.0023 83.9436ZM31.9977 82.9436C31.9992 82.9623 32 82.9811 32 83C32 83.0189 31.9992 83.0377 31.9977 83.0564L32.0024 83.0575C32.0008 83.0385 32 83.0193 32 83C32 82.9807 32.0008 82.9615 32.0024 82.9425L31.9977 82.9436Z"
        fill="#7D3C00"
      />
      <path
        id="Union_25"
        fill-rule="evenodd"
        clip-rule="evenodd"
        d="M23.3185 66.8793C23.3003 66.8837 23.2823 66.8889 23.2643 66.8948C22.7402 67.069 22.5271 67.8474 22.7882 68.6336C23.0494 69.4198 23.686 69.916 24.2102 69.7418C24.2285 69.7357 24.2464 69.7289 24.2639 69.7214C24.2781 69.8822 24.3122 70.0491 24.3678 70.2163C24.629 71.0025 25.2656 71.4987 25.7897 71.3246C25.9626 71.2671 26.1016 71.144 26.2009 70.9765C26.3808 71.0512 26.5658 71.0667 26.7387 71.0093C27.2628 70.8352 27.476 70.0567 27.2148 69.2705C27.0937 68.9059 26.8918 68.6037 26.6579 68.4018C26.7245 68.1 26.7054 67.7371 26.5842 67.3725C26.3231 66.5863 25.6864 66.0902 25.1623 66.2643C25.1444 66.2702 25.1268 66.2769 25.1096 66.2843C24.7957 65.7734 24.3118 65.4931 23.898 65.6306C23.4843 65.768 23.2643 66.2821 23.3185 66.8793ZM24.8966 68.4576C24.8794 68.4649 24.8618 68.4716 24.8439 68.4776C24.8259 68.4835 24.8078 68.4887 24.7897 68.4931L24.7901 68.498C24.8076 68.4905 24.8256 68.4836 24.8439 68.4776C24.8622 68.4715 24.8806 68.4662 24.8992 68.4617L24.8966 68.4576Z"
        fill="#7D3C00"
      />
      <path
        id="Union_26"
        fill-rule="evenodd"
        clip-rule="evenodd"
        d="M45.0023 14.9436C45.0008 14.9623 45 14.9811 45 15C45 15.5523 45.6716 16 46.5 16C47.3284 16 48 15.5523 48 15C48 14.9807 47.9992 14.9615 47.9976 14.9425C48.1546 14.9797 48.3238 15 48.5 15C49.3284 15 50 14.5523 50 14C50 13.8179 49.927 13.6471 49.7993 13.5C49.927 13.3529 50 13.1821 50 13C50 12.4477 49.3284 12 48.5 12C48.1158 12 47.7654 12.0963 47.5 12.2546C47.2346 12.0963 46.8842 12 46.5 12C45.6716 12 45 12.4477 45 13C45 13.0189 45.0008 13.0377 45.0023 13.0564C44.4185 13.1932 44 13.564 44 14C44 14.436 44.4185 14.8068 45.0023 14.9436ZM46.9977 13.9436C46.9992 13.9623 47 13.9811 47 14C47 14.0189 46.9992 14.0377 46.9977 14.0564L47.0024 14.0575C47.0008 14.0385 47 14.0193 47 14C47 13.9807 47.0008 13.9615 47.0024 13.9425L46.9977 13.9436Z"
        fill="#7D3C00"
      />
      <path
        id="Union_27"
        fill-rule="evenodd"
        clip-rule="evenodd"
        d="M31.0023 19.9436C31.0008 19.9623 31 19.9811 31 20C31 20.5523 31.6716 21 32.5 21C33.3284 21 34 20.5523 34 20C34 19.9807 33.9992 19.9615 33.9976 19.9425C34.1546 19.9797 34.3238 20 34.5 20C35.3284 20 36 19.5523 36 19C36 18.8179 35.927 18.6471 35.7993 18.5C35.927 18.3529 36 18.1821 36 18C36 17.4477 35.3284 17 34.5 17C34.1158 17 33.7654 17.0963 33.5 17.2546C33.2346 17.0963 32.8842 17 32.5 17C31.6716 17 31 17.4477 31 18C31 18.0189 31.0008 18.0377 31.0023 18.0564C30.4185 18.1932 30 18.564 30 19C30 19.436 30.4185 19.8068 31.0023 19.9436ZM32.9977 18.9436C32.9992 18.9623 33 18.9811 33 19C33 19.0189 32.9992 19.0377 32.9977 19.0564L33.0024 19.0575C33.0008 19.0385 33 19.0193 33 19C33 18.9807 33.0008 18.9615 33.0024 18.9425L32.9977 18.9436Z"
        fill="#7D3C00"
      />
      <path
        id="Union_28"
        fill-rule="evenodd"
        clip-rule="evenodd"
        d="M33.2802 44.4187C33.2685 44.4333 33.2573 44.4484 33.2467 44.4641C32.938 44.922 33.2444 45.6686 33.9313 46.1318C34.6181 46.595 35.4252 46.5993 35.734 46.1414C35.7448 46.1254 35.7548 46.1091 35.7641 46.0924C35.8735 46.2111 36.0024 46.3225 36.1485 46.421C36.8354 46.8842 37.6425 46.8885 37.9513 46.4306C38.0531 46.2796 38.0881 46.0972 38.0645 45.9039C38.2525 45.8533 38.4086 45.7525 38.5104 45.6015C38.8192 45.1436 38.5127 44.3969 37.8259 43.9337C37.5074 43.7189 37.163 43.6028 36.8545 43.5857C36.723 43.3061 36.4863 43.0303 36.1677 42.8155C35.4809 42.3523 34.6738 42.348 34.365 42.8059C34.3544 42.8216 34.3446 42.8376 34.3354 42.8539C33.7749 42.641 33.2206 42.7144 32.9768 43.0759C32.733 43.4373 32.8727 43.9788 33.2802 44.4187ZM35.4936 44.7052C35.4845 44.7215 35.4746 44.7376 35.464 44.7532C35.4535 44.7689 35.4423 44.784 35.4306 44.7986L35.4339 44.8022C35.4432 44.7856 35.4533 44.7692 35.464 44.7532C35.4748 44.7372 35.4862 44.7218 35.4982 44.7069L35.4936 44.7052Z"
        fill="#7D3C00"
      />
      <path
        id="Union_29"
        fill-rule="evenodd"
        clip-rule="evenodd"
        d="M85.0098 58.168C84.9989 58.1528 84.9873 58.138 84.975 58.1236C84.6161 57.7038 83.8147 57.7999 83.1851 58.3383C82.5554 58.8766 82.3359 59.6533 82.6948 60.0731C82.7073 60.0878 82.7204 60.1018 82.734 60.1152C82.5904 60.189 82.4487 60.2835 82.3147 60.398C81.6851 60.9364 81.4655 61.7131 81.8244 62.1328C81.9428 62.2713 82.1093 62.3536 82.3019 62.3825C82.3004 62.5772 82.3559 62.7545 82.4743 62.8929C82.8332 63.3127 83.6345 63.2166 84.2642 62.6783C84.5562 62.4286 84.76 62.1277 84.8588 61.8349C85.1634 61.7828 85.4924 61.6283 85.7844 61.3786C86.414 60.8403 86.6336 60.0636 86.2747 59.6438C86.2624 59.6294 86.2496 59.6156 86.2363 59.6025C86.5911 59.1191 86.6682 58.5653 86.3849 58.2339C86.1016 57.9025 85.5425 57.8926 85.0098 58.168ZM84.1431 60.2247C84.1298 60.2115 84.117 60.1977 84.1047 60.1834C84.0924 60.169 84.0808 60.1542 84.0698 60.139L84.0655 60.1413C84.0791 60.1547 84.0921 60.1687 84.1047 60.1834C84.1172 60.198 84.129 60.2131 84.1402 60.2286L84.1431 60.2247Z"
        fill="#7D3C00"
      />
      <path
        id="Union_30"
        fill-rule="evenodd"
        clip-rule="evenodd"
        d="M27.6112 35.027C27.6291 35.0214 27.6468 35.015 27.6643 35.0079C28.1758 34.7996 28.3371 34.0087 28.0246 33.2415C27.7122 32.4743 27.0442 32.0211 26.5327 32.2295C26.5149 32.2367 26.4974 32.2447 26.4804 32.2534C26.4556 32.0939 26.4106 31.9296 26.3441 31.7664C26.0317 30.9991 25.3637 30.546 24.8522 30.7544C24.6835 30.8231 24.5529 30.9551 24.4649 31.1288C24.2805 31.0661 24.0948 31.0628 23.9261 31.1315C23.4146 31.3398 23.2533 32.1307 23.5657 32.8979C23.7106 33.2537 23.932 33.542 24.1787 33.728C24.1322 34.0335 24.1752 34.3944 24.3201 34.7502C24.6326 35.5174 25.3005 35.9705 25.812 35.7622C25.8295 35.7551 25.8466 35.7473 25.8633 35.7388C26.2102 36.2279 26.7115 36.4756 27.1153 36.3112C27.5191 36.1468 27.7047 35.6193 27.6112 35.027ZM25.9325 33.5562C25.9492 33.5477 25.9663 33.5399 25.9838 33.5328C26.0013 33.5256 26.019 33.5193 26.0368 33.5137L26.0361 33.5088C26.0191 33.5175 26.0016 33.5255 25.9838 33.5328C25.9659 33.5401 25.9479 33.5465 25.9296 33.5522L25.9325 33.5562Z"
        fill="#7D3C00"
      />
    </g>
    <g id="shrooms">
      <path
        id="shroom"
        d="M34.4826 27.774C32.2014 26.7669 30.9047 26.7174 28.5665 27.774C27.7999 29.1924 27.8225 29.9873 28.5665 31.4058C29.1741 31.857 29.5301 31.9752 30.2568 31.4058V34H32.7923V31.4058C33.4528 31.8631 33.822 31.8714 34.4826 31.4058C35.1891 29.9875 35.1557 29.1923 34.4826 27.774Z"
        fill="#AE9A7B"
      />
      <path
        id="shroom_2"
        d="M23.4826 46.774C21.2014 45.7669 19.9047 45.7174 17.5665 46.774C16.7999 48.1924 16.8225 48.9873 17.5665 50.4058C18.1741 50.857 18.5301 50.9752 19.2568 50.4058V53H21.7923V50.4058C22.4528 50.8631 22.822 50.8714 23.4826 50.4058C24.1891 48.9875 24.1557 48.1923 23.4826 46.774Z"
        fill="#AE9A7B"
      />
      <path
        id="shroom_3"
        d="M82.4826 36.774C80.2014 35.7669 78.9047 35.7174 76.5665 36.774C75.7999 38.1924 75.8225 38.9873 76.5665 40.4058C77.1741 40.857 77.5301 40.9752 78.2568 40.4058V43H80.7923V40.4058C81.4528 40.8631 81.822 40.8714 82.4826 40.4058C83.1891 38.9875 83.1557 38.1923 82.4826 36.774Z"
        fill="#AE9A7B"
      />
      <path
        id="shroom_4"
        d="M62.4826 42.774C60.2014 41.7669 58.9047 41.7174 56.5665 42.774C55.7999 44.1924 55.8225 44.9873 56.5665 46.4058C57.1741 46.857 57.5301 46.9752 58.2568 46.4058V49H60.7923V46.4058C61.4528 46.8631 61.822 46.8714 62.4826 46.4058C63.1891 44.9875 63.1557 44.1923 62.4826 42.774Z"
        fill="#AE9A7B"
      />
      <path
        id="shroom_5"
        d="M37.4826 72.774C35.2014 71.7669 33.9047 71.7174 31.5665 72.774C30.7999 74.1924 30.8225 74.9873 31.5665 76.4058C32.1741 76.857 32.5301 76.9752 33.2568 76.4058V79H35.7923V76.4058C36.4528 76.8631 36.822 76.8714 37.4826 76.4058C38.1891 74.9875 38.1557 74.1923 37.4826 72.774Z"
        fill="#AE9A7B"
      />
      <path
        id="shroom_6"
        d="M82.4826 57.774C80.2014 56.7669 78.9047 56.7174 76.5665 57.774C75.7999 59.1924 75.8225 59.9873 76.5665 61.4058C77.1741 61.857 77.5301 61.9752 78.2568 61.4058V64H80.7923V61.4058C81.4528 61.8631 81.822 61.8714 82.4826 61.4058C83.1891 59.9875 83.1557 59.1923 82.4826 57.774Z"
        fill="#AE9A7B"
      />
      <path
        id="shroom_7"
        d="M41.4826 38.774C39.2014 37.7669 37.9047 37.7174 35.5665 38.774C34.7999 40.1924 34.8225 40.9873 35.5665 42.4058C36.1741 42.857 36.5301 42.9752 37.2568 42.4058V45H39.7923V42.4058C40.4528 42.8631 40.822 42.8714 41.4826 42.4058C42.1891 40.9875 42.1557 40.1923 41.4826 38.774Z"
        fill="#AE9A7B"
      />
      <path
        id="shroom_8"
        d="M58.4826 22.774C56.2014 21.7669 54.9047 21.7174 52.5665 22.774C51.7999 24.1924 51.8225 24.9873 52.5665 26.4058C53.1741 26.857 53.5301 26.9752 54.2568 26.4058V29H56.7923V26.4058C57.4528 26.8631 57.822 26.8714 58.4826 26.4058C59.1891 24.9875 59.1557 24.1923 58.4826 22.774Z"
        fill="#AE9A7B"
      />
      <path
        id="shroom_9"
        d="M69.4826 15.774C67.2014 14.7669 65.9047 14.7174 63.5665 15.774C62.7999 17.1924 62.8225 17.9873 63.5665 19.4058C64.1741 19.857 64.5301 19.9752 65.2568 19.4058V22H67.7923V19.4058C68.4528 19.8631 68.822 19.8714 69.4826 19.4058C70.1891 17.9875 70.1557 17.1923 69.4826 15.774Z"
        fill="#AE9A7B"
      />
      <path
        id="shroom_10"
        d="M41.4826 55.774C39.2014 54.7669 37.9047 54.7174 35.5665 55.774C34.7999 57.1924 34.8225 57.9873 35.5665 59.4058C36.1741 59.857 36.5301 59.9752 37.2568 59.4058V62H39.7923V59.4058C40.4528 59.8631 40.822 59.8714 41.4826 59.4058C42.1891 57.9875 42.1557 57.1923 41.4826 55.774Z"
        fill="#AE9A7B"
      />
      <path
        id="shroom_11"
        d="M65.4826 71.774C63.2014 70.7669 61.9047 70.7174 59.5665 71.774C58.7999 73.1924 58.8225 73.9873 59.5665 75.4058C60.1741 75.857 60.5301 75.9752 61.2568 75.4058V78H63.7923V75.4058C64.4528 75.8631 64.822 75.8714 65.4826 75.4058C66.1891 73.9875 66.1557 73.1923 65.4826 71.774Z"
        fill="#AE9A7B"
      />
    </g>
  </g>
</svg>
